<mxfile host="app.diagrams.net" agent="Mozilla/5.0 (Windows NT 10.0; Win64; x64) AppleWebKit/537.36 (KHTML, like Gecko) Chrome/134.0.0.0 Safari/537.36" version="26.1.3">
  <diagram name="Página-1" id="v4zApe0wrvGxP9E72Ud_">
    <mxGraphModel dx="1100" dy="555" grid="1" gridSize="10" guides="1" tooltips="1" connect="1" arrows="1" fold="1" page="1" pageScale="1" pageWidth="827" pageHeight="1169" math="0" shadow="0">
      <root>
        <mxCell id="0" />
        <mxCell id="1" parent="0" />
        <mxCell id="JS9lB8hVhp3xBH3BuVOz-15" value="" style="rounded=1;whiteSpace=wrap;html=1;" vertex="1" parent="1">
          <mxGeometry x="170" y="35" width="530" height="445" as="geometry" />
        </mxCell>
        <mxCell id="JS9lB8hVhp3xBH3BuVOz-19" style="edgeStyle=orthogonalEdgeStyle;rounded=0;orthogonalLoop=1;jettySize=auto;html=1;entryX=0;entryY=0.5;entryDx=0;entryDy=0;endArrow=none;startFill=0;" edge="1" parent="1" source="JS9lB8hVhp3xBH3BuVOz-1" target="JS9lB8hVhp3xBH3BuVOz-7">
          <mxGeometry relative="1" as="geometry" />
        </mxCell>
        <mxCell id="JS9lB8hVhp3xBH3BuVOz-20" style="edgeStyle=orthogonalEdgeStyle;rounded=0;orthogonalLoop=1;jettySize=auto;html=1;entryX=0;entryY=0.5;entryDx=0;entryDy=0;endArrow=none;startFill=0;" edge="1" parent="1" source="JS9lB8hVhp3xBH3BuVOz-1" target="JS9lB8hVhp3xBH3BuVOz-5">
          <mxGeometry relative="1" as="geometry" />
        </mxCell>
        <mxCell id="JS9lB8hVhp3xBH3BuVOz-23" style="edgeStyle=orthogonalEdgeStyle;rounded=0;orthogonalLoop=1;jettySize=auto;html=1;endArrow=none;startFill=0;" edge="1" parent="1" source="JS9lB8hVhp3xBH3BuVOz-1" target="JS9lB8hVhp3xBH3BuVOz-6">
          <mxGeometry relative="1" as="geometry" />
        </mxCell>
        <mxCell id="JS9lB8hVhp3xBH3BuVOz-1" value="Usuário" style="shape=umlActor;verticalLabelPosition=bottom;verticalAlign=top;html=1;outlineConnect=0;" vertex="1" parent="1">
          <mxGeometry x="50" y="210" width="50" height="100" as="geometry" />
        </mxCell>
        <mxCell id="JS9lB8hVhp3xBH3BuVOz-4" value="&lt;font style=&quot;font-size: 20px;&quot;&gt;Cadastrar/Atualizar&amp;nbsp;&lt;/font&gt;&lt;div&gt;&lt;font style=&quot;font-size: 20px;&quot;&gt;Endereço&lt;/font&gt;&lt;/div&gt;" style="text;html=1;align=center;verticalAlign=middle;resizable=0;points=[];autosize=1;strokeColor=none;fillColor=none;" vertex="1" parent="1">
          <mxGeometry x="314" y="35" width="200" height="60" as="geometry" />
        </mxCell>
        <mxCell id="JS9lB8hVhp3xBH3BuVOz-5" value="&lt;font style=&quot;font-size: 14px;&quot;&gt;Acessar perfil&lt;/font&gt;" style="ellipse;whiteSpace=wrap;html=1;" vertex="1" parent="1">
          <mxGeometry x="210" y="115" width="120" height="80" as="geometry" />
        </mxCell>
        <mxCell id="JS9lB8hVhp3xBH3BuVOz-6" value="&lt;font style=&quot;font-size: 14px;&quot;&gt;Preencher endereço&lt;/font&gt;" style="ellipse;whiteSpace=wrap;html=1;" vertex="1" parent="1">
          <mxGeometry x="210" y="220" width="120" height="80" as="geometry" />
        </mxCell>
        <mxCell id="JS9lB8hVhp3xBH3BuVOz-7" value="&lt;font style=&quot;font-size: 14px;&quot;&gt;Salvar dados&lt;/font&gt;" style="ellipse;whiteSpace=wrap;html=1;" vertex="1" parent="1">
          <mxGeometry x="210" y="330" width="120" height="80" as="geometry" />
        </mxCell>
        <mxCell id="JS9lB8hVhp3xBH3BuVOz-22" style="edgeStyle=orthogonalEdgeStyle;rounded=0;orthogonalLoop=1;jettySize=auto;html=1;endArrow=none;startFill=0;" edge="1" parent="1" source="JS9lB8hVhp3xBH3BuVOz-8" target="JS9lB8hVhp3xBH3BuVOz-10">
          <mxGeometry relative="1" as="geometry" />
        </mxCell>
        <mxCell id="JS9lB8hVhp3xBH3BuVOz-8" value="&lt;font style=&quot;font-size: 14px;&quot;&gt;Logar no sistema&lt;/font&gt;" style="ellipse;whiteSpace=wrap;html=1;" vertex="1" parent="1">
          <mxGeometry x="514" y="115" width="120" height="80" as="geometry" />
        </mxCell>
        <mxCell id="JS9lB8hVhp3xBH3BuVOz-24" style="edgeStyle=orthogonalEdgeStyle;rounded=0;orthogonalLoop=1;jettySize=auto;html=1;endArrow=none;startFill=0;" edge="1" parent="1" source="JS9lB8hVhp3xBH3BuVOz-9" target="JS9lB8hVhp3xBH3BuVOz-11">
          <mxGeometry relative="1" as="geometry" />
        </mxCell>
        <mxCell id="JS9lB8hVhp3xBH3BuVOz-9" value="&lt;font style=&quot;font-size: 14px;&quot;&gt;Preencher dados pelo CEP&lt;/font&gt;" style="ellipse;whiteSpace=wrap;html=1;" vertex="1" parent="1">
          <mxGeometry x="514" y="220" width="120" height="80" as="geometry" />
        </mxCell>
        <mxCell id="JS9lB8hVhp3xBH3BuVOz-10" value="Sistema" style="shape=umlActor;verticalLabelPosition=bottom;verticalAlign=top;html=1;outlineConnect=0;" vertex="1" parent="1">
          <mxGeometry x="740" y="95" width="50" height="100" as="geometry" />
        </mxCell>
        <mxCell id="JS9lB8hVhp3xBH3BuVOz-11" value="API Correios" style="shape=umlActor;verticalLabelPosition=bottom;verticalAlign=top;html=1;outlineConnect=0;" vertex="1" parent="1">
          <mxGeometry x="740" y="260" width="50" height="100" as="geometry" />
        </mxCell>
        <mxCell id="JS9lB8hVhp3xBH3BuVOz-27" value="&amp;lt;&amp;lt;extend&amp;gt;&amp;gt;" style="html=1;verticalAlign=bottom;labelBackgroundColor=none;endArrow=open;endFill=0;dashed=1;rounded=0;entryX=0;entryY=0.5;entryDx=0;entryDy=0;" edge="1" parent="1" target="JS9lB8hVhp3xBH3BuVOz-8">
          <mxGeometry width="160" relative="1" as="geometry">
            <mxPoint x="330" y="154.82999999999998" as="sourcePoint" />
            <mxPoint x="490" y="154.82999999999998" as="targetPoint" />
          </mxGeometry>
        </mxCell>
        <mxCell id="JS9lB8hVhp3xBH3BuVOz-28" value="&amp;lt;&amp;lt;include&amp;gt;&amp;gt;" style="html=1;verticalAlign=bottom;labelBackgroundColor=none;endArrow=open;endFill=0;dashed=1;rounded=0;entryX=0;entryY=0.5;entryDx=0;entryDy=0;" edge="1" parent="1" target="JS9lB8hVhp3xBH3BuVOz-9">
          <mxGeometry width="160" relative="1" as="geometry">
            <mxPoint x="330" y="260" as="sourcePoint" />
            <mxPoint x="490" y="260" as="targetPoint" />
          </mxGeometry>
        </mxCell>
      </root>
    </mxGraphModel>
  </diagram>
</mxfile>
